 TIMESTAMP IN PORT STATUS DATA1 DATA2 CHAN NOTE EVENT               
 0019A767   1   2     90    28    6E    1  E  2 Note On               
 0019A767   1   3     90    28    6E    1  E  2 Note On               
 0019A7E6   1   2     80    28    00    1  E  2 Note Off              
 0019A7E6   1   3     80    28    00    1  E  2 Note Off              
 0019A9FA   1   2     90    30    6E    1  C  3 Note On               
 0019A9FA   1   3     90    30    6E    1  C  3 Note On               
 0019AA7F   1   2     80    30    00    1  C  3 Note Off              
 0019AA7F   1   3     80    30    00    1  C  3 Note Off              
 0019AC31   1   2     90    37    6E    1  G  3 Note On               
 0019AC31   1   3     90    37    6E    1  G  3 Note On               
 0019ACAE   1   2     80    37    00    1  G  3 Note Off              
 0019ACAE   1   3     80    37    00    1  G  3 Note Off              
 0019AE79   1   2     90    3C    6E    1  C  4 Note On               
 0019AE79   1   3     90    3C    6E    1  C  4 Note On               
 0019AF03   1   2     80    3C    00    1  C  4 Note Off              
 0019AF03   1   3     80    3C    00    1  C  4 Note Off              
 0019B09D   1   2     90    40    6E    1  E  4 Note On               
 0019B09D   1   3     90    40    6E    1  E  4 Note On               
 0019B12E   1   2     80    40    00    1  E  4 Note Off              
 0019B12E   1   3     80    40    00    1  E  4 Note Off              
 0019B2CF   1   2     90    43    6E    1  G  4 Note On               
 0019B2CF   1   3     90    43    6E    1  G  4 Note On               
 0019B3CB   1   2     80    43    00    1  G  4 Note Off              
 0019B3CB   1   3     80    43    00    1  G  4 Note Off              
 0019B624   1   2     90    45    6E    1  A  4 Note On               
 0019B624   1   3     90    45    6E    1  A  4 Note On               
 0019B678   1   2     80    45    00    1  A  4 Note Off              
 0019B678   1   3     80    45    00    1  A  4 Note Off              
 0019BAD2   1   2     96    4A    6E    7  D  5 Note On               
 0019BAD2   1   3     96    4A    6E    7  D  5 Note On               
 0019BB31   1   2     86    4A    00    7  D  5 Note Off              
 0019BB31   1   3     86    4A    00    7  D  5 Note Off              
 0019BD16   1   2     90    4C    6E    1  E  5 Note On               
 0019BD16   1   3     90    4C    6E    1  E  5 Note On               
 0019BD8D   1   2     80    4C    00    1  E  5 Note Off              
 0019BD8D   1   3     80    4C    00    1  E  5 Note Off              
 0019C1A4   1   2     90    4E    6E    1  F# 5 Note On               
 0019C1A4   1   3     90    4E    6E    1  F# 5 Note On               
 0019C238   1   2     80    4E    00    1  F# 5 Note Off              
 0019C238   1   3     80    4E    00    1  F# 5 Note Off              
 0019C5D1   1   2     90    4F    6E    1  G  5 Note On               
 0019C5D1   1   3     90    4F    6E    1  G  5 Note On               
 0019C658   1   2     80    4F    00    1  G  5 Note Off              
 0019C658   1   3     80    4F    00    1  G  5 Note Off              
 0019C8F1   1   2     90    50    6E    1  G# 5 Note On               
 0019C8F1   1   3     90    50    6E    1  G# 5 Note On               
 0019C977   1   2     80    50    00    1  G# 5 Note Off              
 0019C977   1   3     80    50    00    1  G# 5 Note Off              
 0019CC50   1   2     90    52    6E    1  Bb 5 Note On               
 0019CC50   1   3     90    52    6E    1  Bb 5 Note On               
 0019CCD1   1   2     80    52    00    1  Bb 5 Note Off              
 0019CCD1   1   3     80    52    00    1  Bb 5 Note Off              
 0019D024   1   2     90    50    6E    1  G# 5 Note On               
 0019D024   1   3     90    50    6E    1  G# 5 Note On               
 0019D0E9   1   2     80    50    00    1  G# 5 Note Off              
 0019D0E9   1   3     80    50    00    1  G# 5 Note Off              
 0019D3C1   1   2     95    4F    6E    6  G  5 Note On               
 0019D3C1   1   3     95    4F    6E    6  G  5 Note On               
 0019D44D   1   2     85    4F    00    6  G  5 Note Off              
 0019D44D   1   3     85    4F    00    6  G  5 Note Off              
 0019D6AF   1   2     97    4E    6E    8  F# 5 Note On               
 0019D6AF   1   3     97    4E    6E    8  F# 5 Note On               
 0019D754   1   2     87    4E    00    8  F# 5 Note Off              
 0019D754   1   3     87    4E    00    8  F# 5 Note Off              
 0019D9D9   1   2     95    4C    6E    6  E  5 Note On               
 0019D9D9   1   3     95    4C    6E    6  E  5 Note On               
 0019DA9A   1   2     85    4C    00    6  E  5 Note Off              
 0019DA9A   1   3     85    4C    00    6  E  5 Note Off              
 0019DD67   1   2     96    4A    6E    7  D  5 Note On               
 0019DD67   1   3     96    4A    6E    7  D  5 Note On               
 0019DDF0   1   2     86    4A    00    7  D  5 Note Off              
 0019DDF0   1   3     86    4A    00    7  D  5 Note Off              
 0019E000   1   2     97    48    6E    8  C  5 Note On               
 0019E000   1   3     97    48    6E    8  C  5 Note On               
 0019E08E   1   2     87    48    00    8  C  5 Note Off              
 0019E08E   1   3     87    48    00    8  C  5 Note Off              
 0019E2B1   1   2     97    45    6E    8  A  4 Note On               
 0019E2B1   1   3     97    45    6E    8  A  4 Note On               
 0019E340   1   2     87    45    00    8  A  4 Note Off              
 0019E340   1   3     87    45    00    8  A  4 Note Off              
 0019E51B   1   2     97    43    6E    8  G  4 Note On               
 0019E51B   1   3     97    43    6E    8  G  4 Note On               
 0019E5CF   1   2     87    43    00    8  G  4 Note Off              
 0019E5CF   1   3     87    43    00    8  G  4 Note Off              
 0019E7BC   1   2     98    40    6E    9  E  4 Note On               
 0019E7BC   1   3     98    40    6E    9  E  4 Note On               
 0019E862   1   2     88    40    00    9  E  4 Note Off              
 0019E862   1   3     88    40    00    9  E  4 Note Off              
 0019EA4D   1   2     98    3C    6E    9  C  4 Note On               
 0019EA4D   1   3     98    3C    6E    9  C  4 Note On               
 0019EAFD   1   2     88    3C    00    9  C  4 Note Off              
 0019EAFD   1   3     88    3C    00    9  C  4 Note Off              
 0019ED21   1   2     97    37    6E    8  G  3 Note On               
 0019ED21   1   3     97    37    6E    8  G  3 Note On               
 0019EDD0   1   2     87    37    00    8  G  3 Note Off              
 0019EDD0   1   3     87    37    00    8  G  3 Note Off              
 0019EF9D   1   2     9B    30    6E   12  C  3 Note On               
 0019EF9D   1   3     9B    30    6E   12  C  3 Note On               
 0019F04F   1   2     8B    30    00   12  C  3 Note Off              
 0019F04F   1   3     8B    30    00   12  C  3 Note Off              
 0019F1F6   1   2     9B    28    6E   12  E  2 Note On               
 0019F1F6   1   3     9B    28    6E   12  E  2 Note On               
 0019F28B   1   2     8B    28    00   12  E  2 Note Off              
 0019F28B   1   3     8B    28    00   12  E  2 Note Off              
