  TIMESTAMP IN PORT STATUS DATA1 DATA2 CHAN NOTE EVENT               
 0000DB41   1   2     96    28    6E    7  E  2 Note On               
 0000DB41   1   3     96    28    6E    7  E  2 Note On               
 0000DBB1   1   2     86    28    00    7  E  2 Note Off              
 0000DBB1   1   3     86    28    00    7  E  2 Note Off              
 0000E127   1   2     95    30    6E    6  C  3 Note On               
 0000E127   1   3     95    30    6E    6  C  3 Note On               
 0000E198   1   2     85    30    00    6  C  3 Note Off              
 0000E198   1   3     85    30    00    6  C  3 Note Off              
 0000E779   1   2     96    37    6E    7  G  3 Note On               
 0000E779   1   3     96    37    6E    7  G  3 Note On               
 0000E7FF   1   2     86    37    00    7  G  3 Note Off              
 0000E7FF   1   3     86    37    00    7  G  3 Note Off              
 0000ECD8   1   2     96    3C    6E    7  C  4 Note On               
 0000ECD8   1   3     96    3C    6E    7  C  4 Note On               
 0000ED5E   1   2     86    3C    00    7  C  4 Note Off              
 0000ED5E   1   3     86    3C    00    7  C  4 Note Off              
 0000F251   1   2     96    40    6E    7  E  4 Note On               
 0000F251   1   3     96    40    6E    7  E  4 Note On               
 0000F2DC   1   2     86    40    00    7  E  4 Note Off              
 0000F2DC   1   3     86    40    00    7  E  4 Note Off              
 0000F881   1   2     96    43    6E    7  G  4 Note On               
 0000F881   1   3     96    43    6E    7  G  4 Note On               
 0000F8FE   1   2     86    43    00    7  G  4 Note Off              
 0000F8FE   1   3     86    43    00    7  G  4 Note Off              
 0000FDDB   1   2     97    40    6E    8  E  4 Note On               
 0000FDDB   1   3     97    40    6E    8  E  4 Note On               
 0000FE64   1   2     87    40    00    8  E  4 Note Off              
 0000FE64   1   3     87    40    00    8  E  4 Note Off              
 00010406   1   2     97    3C    6E    8  C  4 Note On               
 00010406   1   3     97    3C    6E    8  C  4 Note On               
 0001048E   1   2     87    3C    00    8  C  4 Note Off              
 0001048E   1   3     87    3C    00    8  C  4 Note Off              
 00010D20   1   2     97    37    6E    8  G  3 Note On               
 00010D20   1   3     97    37    6E    8  G  3 Note On               
 00010DB2   1   2     87    37    00    8  G  3 Note Off              
 00010DB2   1   3     87    37    00    8  G  3 Note Off              
 00011288   1   2     97    30    6E    8  C  3 Note On               
 00011288   1   3     97    30    6E    8  C  3 Note On               
 0001132C   1   2     87    30    00    8  C  3 Note Off              
 0001132C   1   3     87    30    00    8  C  3 Note Off              
 00011781   1   2     98    28    6E    9  E  2 Note On               
 00011781   1   3     98    28    6E    9  E  2 Note On               
 0001183C   1   2     88    28    00    9  E  2 Note Off              
 0001183C   1   3     88    28    00    9  E  2 Note Off              
