 TIMESTAMP IN PORT STATUS DATA1 DATA2 CHAN NOTE EVENT               
 001F7C0D   1   2     90    28    6E    1  E  2 Note On               
 001F7C0D   1   3     90    28    6E    1  E  2 Note On               
 001F7CB7   1   2     80    28    00    1  E  2 Note Off              
 001F7CB7   1   3     80    28    00    1  E  2 Note Off              
 001F801E   1   2     95    30    6E    6  C  3 Note On               
 001F801E   1   3     95    30    6E    6  C  3 Note On               
 001F819D   1   2     85    30    00    6  C  3 Note Off              
 001F819D   1   3     85    30    00    6  C  3 Note Off              
 001F9820   1   2     95    37    6E    6  G  3 Note On               
 001F9820   1   3     95    37    6E    6  G  3 Note On               
 001F986D   1   2     85    37    00    6  G  3 Note Off              
 001F986D   1   3     85    37    00    6  G  3 Note Off              
 001FA0B3   1   2     95    3C    6E    6  C  4 Note On               
 001FA0B3   1   3     95    3C    6E    6  C  4 Note On               
 001FA135   1   2     85    3C    00    6  C  4 Note Off              
 001FA135   1   3     85    3C    00    6  C  4 Note Off              
 001FA8BB   1   2     95    40    6E    6  E  4 Note On               
 001FA8BB   1   3     95    40    6E    6  E  4 Note On               
 001FA960   1   2     85    40    00    6  E  4 Note Off              
 001FA960   1   3     85    40    00    6  E  4 Note Off              
 001FB10F   1   2     95    43    6E    6  G  4 Note On               
 001FB10F   1   3     95    43    6E    6  G  4 Note On               
 001FB1B3   1   2     85    43    00    6  G  4 Note Off              
 001FB1B3   1   3     85    43    00    6  G  4 Note Off              
 001FB972   1   2     95    45    6E    6  A  4 Note On               
 001FB972   1   3     95    45    6E    6  A  4 Note On               
 001FBA1B   1   2     85    45    00    6  A  4 Note Off              
 001FBA1B   1   3     85    45    00    6  A  4 Note Off              
 001FC144   1   2     95    48    6E    6  C  5 Note On               
 001FC144   1   3     95    48    6E    6  C  5 Note On               
 001FC1E1   1   2     85    48    00    6  C  5 Note Off              
 001FC1E1   1   3     85    48    00    6  C  5 Note Off              
 001FC8A9   1   2     95    4A    6E    6  D  5 Note On               
 001FC8A9   1   3     95    4A    6E    6  D  5 Note On               
 001FC949   1   2     85    4A    00    6  D  5 Note Off              
 001FC949   1   3     85    4A    00    6  D  5 Note Off              
 001FD08A   1   2     95    4C    6E    6  E  5 Note On               
 001FD08A   1   3     95    4C    6E    6  E  5 Note On               
 001FD128   1   2     85    4C    00    6  E  5 Note Off              
 001FD128   1   3     85    4C    00    6  E  5 Note Off              
 001FD76A   1   2     95    4A    6E    6  D  5 Note On               
 001FD76A   1   3     95    4A    6E    6  D  5 Note On               
 001FD812   1   2     85    4A    00    6  D  5 Note Off              
 001FD812   1   3     85    4A    00    6  D  5 Note Off              
 001FDF34   1   2     96    48    6E    7  C  5 Note On               
 001FDF34   1   3     96    48    6E    7  C  5 Note On               
 001FDFDC   1   2     86    48    00    7  C  5 Note Off              
 001FDFDC   1   3     86    48    00    7  C  5 Note Off              
 001FE5C2   1   2     96    45    6E    7  A  4 Note On               
 001FE5C2   1   3     96    45    6E    7  A  4 Note On               
 001FE677   1   2     86    45    00    7  A  4 Note Off              
 001FE677   1   3     86    45    00    7  A  4 Note Off              
 001FED58   1   2     96    43    6E    7  G  4 Note On               
 001FED58   1   3     96    43    6E    7  G  4 Note On               
 001FEE04   1   2     86    43    00    7  G  4 Note Off              
 001FEE04   1   3     86    43    00    7  G  4 Note Off              
 001FF2F9   1   2     98    40    6E    9  E  4 Note On               
 001FF2F9   1   3     98    40    6E    9  E  4 Note On               
 001FF521   1   2     88    40    00    9  E  4 Note Off              
 001FF521   1   3     88    40    00    9  E  4 Note Off              
 001FFC8C   1   2     9B    3C    6E   12  C  4 Note On               
 001FFC8C   1   3     9B    3C    6E   12  C  4 Note On               
 001FFD3F   1   2     8B    3C    00   12  C  4 Note Off              
 001FFD3F   1   3     8B    3C    00   12  C  4 Note Off              
 002003FA   1   2     9B    37    6E   12  G  3 Note On               
 002003FA   1   3     9B    37    6E   12  G  3 Note On               
 002004BC   1   2     8B    37    00   12  G  3 Note Off              
 002004BC   1   3     8B    37    00   12  G  3 Note Off              
 0020098E   1   2     98    30    6E    9  C  3 Note On               
 0020098E   1   3     98    30    6E    9  C  3 Note On               
 00200A61   1   2     88    30    00    9  C  3 Note Off              
 00200A61   1   3     88    30    00    9  C  3 Note Off              
 00200E6D   1   2     98    28    6E    9  E  2 Note On               
 00200E6D   1   3     98    28    6E    9  E  2 Note On               
 00200F27   1   2     88    28    00    9  E  2 Note Off              
 00200F27   1   3     88    28    00    9  E  2 Note Off              
